<?xml version="1.0" encoding="UTF-8"?>
<svg id="Layer_1" data-name="Layer 1" xmlns="http://www.w3.org/2000/svg" viewBox="0 0 370 557.6">
  <path class="cls-1" d="m329.87,150.72c2.79,2.99,6.28,6.68,7.68,8.38l2.59,2.99,4.19-4.49c2.29-2.49,6.18-6.68,8.58-9.28,2.39-2.69,4.79-4.49,5.19-3.99,1,1.1,6.38,15.26,8.88,23.24,9.38,30.22,13.27,63.44,11.17,95.26-2.19,32.92-9.08,64.64-20.25,93.47-1.5,3.89-2.79,3.49-2.79-.8,0-10.27-6.58-32.62-13.96-47.28-9.78-19.55-28.53-40.6-46.88-52.77-19.45-12.87-44.59-23.04-65.84-26.53-14.26-2.39-41.6-1.6-53.37,1.4-16.46,4.39-32.62,11.77-46.88,21.55-10.07,6.98-27.83,25.24-35.31,36.41-18.25,27.33-24.54,48.58-22.04,73.91,2.59,25.14,11.07,47.28,29.73,77.21,5.09,8.08,17.76,26.23,19.15,27.43.27.2,1.32,1.56,2.69,3.37,1.39,1.08,2.41,2.51,3.07,4.1,1.94,2.54,3.7,4.65,4.22,5,.5.3,1,1.4,1,2.39,0,.89-2.4,2.63-8.28,5.85-.78.61-1.69,1.1-2.7,1.45-2.19,1.16-4.71,2.47-7.67,3.97-26.43,13.57-37.41,19.25-47.18,24.54-4.69,2.49-12.07,6.38-16.46,8.68-.96.51-1.87.99-2.75,1.46-6.38,5.8-14.6,9.77-22.27,13.32-6.35,2.94-12.82,5.62-19.29,8.28-1.61.66-2.91,1.19-4.07,1.66v6.71s398,0,398,0V0H0v6.18l10.27-.9c17.76-1.4,51.77-.9,65.54,1.1,42.89,5.99,73.32,15.36,110.12,33.72,45.79,22.84,82.49,49.18,121.1,87.08m-15.36,207.48c-1.7,14.26-3.49,23.24-7.58,37.9-3.19,11.37-10.37,30.82-12.37,33.42-.6.8-2.59,4.39-4.39,7.98-1.8,3.59-3.49,5.89-3.79,5.19-.2-.8.1-5.49.7-10.47,3.69-31.42,3.99-77.61.6-101.94-2.79-20.55-7.88-40.5-14.16-56.16-1.8-4.59-3.29-8.78-3.29-9.38,0-1.2,5.09-.4,11.97,1.9,12.77,4.19,31.02,15.66,32.82,20.55.4,1.2,1.4,9.88,2,19.25,1.4,17.76,1.1,23.04-2.49,51.77Z"/>
</svg>